Coordinates
version=1
nRows=11
nColumns=42
inDegrees=yes

Units are S.I. units (second, meters, Newtons, ...)
If the header above contains a line with 'inDegrees', this indicates whether rotational values are in degrees (yes) or radians (no).

endheader
time	pelvis_tilt	pelvis_list	pelvis_rotation	pelvis_tx	pelvis_ty	pelvis_tz	hip_flexion_r	hip_adduction_r	hip_rotation_r	knee_angle_r	knee_adduction_r	knee_angle_r_beta	ankle_angle_r	subtalar_angle_r	mtp_angle_r	hip_flexion_l	hip_adduction_l	hip_rotation_l	knee_angle_l	knee_adduction_l	knee_angle_l_beta	ankle_angle_l	subtalar_angle_l	mtp_angle_l	lumbar_extension	lumbar_bending	lumbar_rotation	arm_flex_r	arm_add_r	arm_rot_r	elbow_flex_r	pro_sup_r	wrist_flex_r	wrist_dev_r	arm_flex_l	arm_add_l	arm_rot_l	elbow_flex_l	pro_sup_l	wrist_flex_l	wrist_dev_l
      1.27000000	      1.42685253	      6.27117675	      6.07829321	     -1.04236091	      0.98799982	      0.31925662	     14.09435906	     -6.91688750	    -18.66454105	     11.08624423	      0.11674238	      0.19349146	     -4.56784689	      3.33855001	     -7.90934498	    -16.88367543	      3.34971030	     -0.04438640	     11.26572107	      0.64306521	      0.19662393	      7.88362213	      9.18473204	     -7.90934498	    -18.17856053	     -8.08081169	     -9.29461614	    -12.97393031	    -11.01314879	     19.22956955	     36.65030256	     90.00000001	      0.00000000	      0.00000000	     15.26118907	    -19.84856095	     10.98735087	     46.96968018	     90.00000001	      0.00000000	      0.00000000
      1.28000000	      1.43402533	      6.30056872	      6.15768486	     -1.03495694	      0.98976129	      0.32105958	     13.31674134	     -6.75587295	    -18.86691252	     10.56459732	      0.15926603	      0.18438701	     -4.26487095	      3.71886723	     -7.90126689	    -16.31936758	      2.93361051	     -0.03718317	     13.06161436	      1.11390100	      0.22796818	      6.83324869	      8.39904151	     -7.90126689	    -18.30329818	     -8.12639100	     -9.33692965	    -12.40740970	    -10.86034797	     19.03985783	     36.50638972	     90.00000001	      0.00000000	      0.00000000	     14.78814562	    -19.94939337	     11.38035831	     46.29033636	     90.00000001	      0.00000000	      0.00000000
      1.29000000	      1.46464040	      6.40819474	      6.23428666	     -1.02757076	      0.99150221	      0.32287229	     12.49406413	     -6.69426085	    -19.06147805	     10.04799453	      0.25900708	      0.17537059	     -3.90083716	      4.08114752	     -7.89464319	    -15.68327931	      2.57201036	      0.03302298	     15.02947738	      1.61872391	      0.26231387	      5.67877125	      7.72355966	     -7.89464319	    -18.44356784	     -8.25680543	     -9.39580003	    -11.83738340	    -10.74089158	     18.93507082	     36.43784294	     90.00000001	      0.00000000	      0.00000000	     14.26560442	    -20.08179784	     11.66996547	     45.67877058	     90.00000001	      0.00000000	      0.00000000
      1.30000000	      1.52912127	      6.52341813	      6.31298451	     -1.02028896	      0.99324763	      0.32465139	     11.62185161	     -6.64294635	    -19.27907441	      9.49294837	      0.35892435	      0.16568320	     -3.58486638	      4.49615610	     -7.88797762	    -14.96011346	      2.18395056	      0.10791460	     17.19659676	      2.18273162	      0.30013723	      4.52534311	      7.02100417	     -7.88797762	    -18.62032888	     -8.39218426	     -9.44313642	    -11.23101695	    -10.63959736	     18.86931573	     36.40093342	     90.00000001	      0.00000000	      0.00000000	     13.72571299	    -20.22312892	     11.92881778	     45.13037158	     90.00000001	      0.00000000	      0.00000000
      1.31000000	      1.61633716	      6.66150133	      6.39383605	     -1.01304653	      0.99492081	      0.32640449	     10.71401637	     -6.62744315	    -19.51158959	      8.93217187	      0.49149452	      0.15589581	     -3.26870427	      4.91713060	     -7.88151398	    -14.15892963	      1.80532099	      0.22634348	     19.52697824	      2.76345887	      0.34081006	      3.35175884	      6.33906495	     -7.88151398	    -18.81468418	     -8.55212575	     -9.47260332	    -10.61454475	    -10.56216980	     18.84806973	     36.40582837	     90.00000001	      0.00000000	      0.00000000	     13.16050093	    -20.38713066	     12.11749910	     44.65050555	     90.00000001	      0.00000000	      0.00000000
      1.32000000	      1.72555148	      6.78953649	      6.46810703	     -1.00590456	      0.99653072	      0.32818443	      9.78446875	     -6.59329784	    -19.77553171	      8.34924831	      0.62755669	      0.14572187	     -2.98533520	      5.37181332	     -7.87448624	    -13.23423904	      1.39235333	      0.35259318	     22.07650199	      3.36438220	      0.38530765	      2.19381170	      5.62576651	     -7.87448624	    -19.01782078	     -8.70549160	     -9.48455459	     -9.96721116	    -10.51152318	     18.88408524	     36.43673600	     90.00000001	      0.00000000	      0.00000000	     12.55423398	    -20.55474640	     12.23979216	     44.23454616	     90.00000001	      0.00000000	      0.00000000
      1.33000000	      1.94781174	      7.12435051	      6.29924037	     -0.99891930	      0.99817648	      0.33027184	      8.90191225	     -6.78173297	    -19.80405169	      8.07725461	      0.77288960	      0.14097469	     -2.69527598	      5.66558058	     -7.87028821	    -12.54626080	      1.17846880	      0.72242879	     24.33897499	      4.23409812	      0.42479525	      1.21514453	      5.36727506	     -7.87028821	    -19.37707014	     -9.14159280	     -9.26608197	     -9.32241497	    -10.45141610	     18.90693273	     36.58926234	     90.00000001	      0.00000000	      0.00000000	     12.04107269	    -20.73083171	     12.22411049	     43.92485241	     90.00000001	      0.00000000	      0.00000000
      1.34000000	      1.90548852	      6.96989480	      6.53189006	     -0.99202899	      0.99921582	      0.33185305	      8.10735314	     -6.44011827	    -20.23685038	      7.35415225	      0.86603530	      0.12835417	     -2.53856991	      6.30121306	     -7.85810276	    -11.00933566	      0.44369781	      0.68338492	     27.60136576	      4.70885795	      0.48173471	      0.16495092	      4.25572515	     -7.85810276	    -19.35266282	     -8.96905017	     -9.35740204	     -8.58036792	    -10.53008846	     19.24146008	     36.59687008	     90.00000001	      0.00000000	      0.00000000	     11.26078522	    -20.88503810	     12.09874499	     43.62929142	     90.00000001	      0.00000000	      0.00000000
      1.35000000	      2.02680799	      7.11491934	      6.54165169	     -0.98526416	      1.00038863	      0.33354227	      7.25385802	     -6.43408692	    -20.46655503	      6.87586766	      0.99633485	      0.12000653	     -2.22712994	      6.68178973	     -7.84901318	     -9.80522080	      0.06907980	      0.86031451	     30.45212366	      5.28940126	      0.53148982	     -0.78226789	      3.64514123	     -7.84901318	    -19.55917672	     -9.14862142	     -9.25446666	     -7.85250912	    -10.59027658	     19.45568089	     36.71675825	     90.00000001	      0.00000000	      0.00000000	     10.59701066	    -21.03272552	     11.88834839	     43.41302743	     90.00000001	      0.00000000	      0.00000000
      1.36000000	      2.14648652	      7.21168881	      6.50657367	     -0.97867740	      1.00143184	      0.33529174	      6.45808377	     -6.39663802	    -20.59887874	      6.47535918	      1.17666887	      0.11301634	     -1.91258866	      7.03536171	     -7.84064655	     -8.53156810	     -0.34413859	      1.09951251	     33.28703936	      5.87791122	      0.58096844	     -1.56994973	      3.03127046	     -7.84064655	    -19.75206865	     -9.30266315	     -9.08918852	     -7.06611429	    -10.67455347	     19.70818240	     36.85644441	     90.00000001	      0.00000000	      0.00000000	      9.92868390	    -21.16454159	     11.58371656	     43.23850536	     90.00000001	      0.00000000	      0.00000000
      1.37000000	      2.23684716	      7.27193304	      6.47451279	     -0.97214812	      1.00221105	      0.33704379	      5.72379364	     -6.28843117	    -20.75109690	      6.07668794	      1.27167613	      0.10605821	     -1.61723540	      7.35591997	     -7.83223071	     -7.13296478	     -0.81098343	      1.33207753	     36.16937059	      6.49272495	      0.63127461	     -2.19740647	      2.32029541	     -7.83223071	    -19.87640059	     -9.42174981	     -8.85657815	     -6.29535711	    -10.79075254	     20.05368449	     36.97105507	     90.00000001	      0.00000000	      0.00000000	      9.22317010	    -21.28685007	     11.14020001	     43.11564328	     90.00000001	      0.00000000	      0.00000000
